<svg xmlns="http://www.w3.org/2000/svg" viewBox="0 0 512 512">
  <defs>
    <radialGradient id="bg" cx="50%" cy="35%" r="80%">
      <stop offset="0%" stop-color="#202030"/>
      <stop offset="100%" stop-color="#08080C"/>
    </radialGradient>
    <linearGradient id="accent" x1="0%" y1="0%" x2="100%" y2="100%">
      <stop offset="0%" stop-color="#FF7B00"/>
      <stop offset="100%" stop-color="#FF3D00"/>
    </linearGradient>
  </defs>
  <rect width="512" height="512" fill="url(#bg)"/>
  <circle cx="256" cy="256" r="170" fill="none" stroke="#171724" stroke-width="26"/>
  <circle cx="256" cy="256" r="170" fill="none" stroke="url(#accent)" stroke-width="26" stroke-linecap="round" stroke-dasharray="800 1068" transform="rotate(-90 256 256)"/>
  <circle cx="256" cy="256" r="104" fill="#0F0F18"/>
  <path d="M255 168c-10 0-18 8-18 18v74h-38c-10 0-18 8-18 18s8 18 18 18h56c10 0 18-8 18-18v-92c0-10-8-18-18-18Z" fill="#F0F0F8"/>
  <rect x="220" y="78" width="72" height="32" rx="16" fill="#00E5FF"/>
</svg>
